# xmcd CD database file
#
# Track frame offsets:
#	150
#	18385
#	41403
#	56755
#	71125
#	88823
#	103761
#	124955
#	140976
#	158966
#	176261
#	186835
#	202486
#	216901
#	234258
#	250447
#	268339
#	287230
#	308899
#	325903
#
# Disc length: 4595 seconds
#
# Revision: 0
# Processed by: cddbd v1.5.2PL0 Copyright (c) Steve Scherf et al.
# Submitted via: CDex 1.70beta2
#
DISCID=4511f114
DTITLE=Various Artist - Cream of Country Vol 12
DYEAR=2009
DGENRE=Country
TTITLE0=Carrie Underwood - Last Name
TTITLE1=Alan Jackson - Good Time
TTITLE2=George Strait - I Saw God Today
TTITLE3=Miranda Lambert - Gunpowder and Lead
TTITLE4=James Otto - Just Got Started Lovin' You
TTITLE5=Gretchin Wilson - You Don't Have To Go Home
TTITLE6=Brad Paisley - Letter To Me
TTITLE7=Sugarland - All I Want To Do
TTITLE8=Montgomery Gentry - Back When I Knew It All
TTITLE9=Martina McBride - How I Feel
TTITLE10=The Statler Brothers - Flowers on the Wall
TTITLE11=Chuck Wicks - All I Ever Wanter
TTITLE12=Kellie Pickler - Things That Never Cross A Man's Mind
TTITLE13=Brooks and Dunn - God Must Be Busy
TTITLE14=LeAnn Rimes - Good Fried and a Class of Wine
TTITLE15=Time McGraw - Last Dollar (Fly Away)
TTITLE16=Kenny Chesney - Better As A Memory
TTITLE17=Sara Evans - I Could Not Ask For More
TTITLE18=Josh Turner - Another Try
TTITLE19=Tom T Hall - Old Dogs, Children and Watermelon Wine
EXTD=YEAR: 2009
EXTT0=
EXTT1=
EXTT2=
EXTT3=
EXTT4=
EXTT5=
EXTT6=
EXTT7=
EXTT8=
EXTT9=
EXTT10=
EXTT11=
EXTT12=
EXTT13=
EXTT14=
EXTT15=
EXTT16=
EXTT17=
EXTT18=
EXTT19=
PLAYORDER=
